<svg width="1322" height="1110" viewBox="0 0 1322 1110" fill="none" xmlns="http://www.w3.org/2000/svg">
<g clip-path="url(#clip0_192_2468)">
<path d="M640.461 0L572.777 117.306L673.874 57.8907L640.461 0Z" fill="#1C1B20"/>
<path d="M702.016 106.673L515.744 216.153L417.234 386.886L750.636 190.933L702.016 106.673Z" fill="#1C1B20"/>
<path d="M984.126 112.008L565.537 358.013L467.027 528.746L1032.73 196.267L984.126 112.008Z" fill="#1C1B20"/>
<path d="M968.483 302.517L317.602 685.049L219.08 855.782L1017.1 386.777L968.483 302.517Z" fill="#1C1B20"/>
<path d="M932.315 505.8L49.1156 1024.87L0 1110H96.2608L980.935 590.06L932.315 505.8Z" fill="#1C1B20"/>
<path d="M399.404 1110L1057.7 723.102L1009.08 638.842L207.414 1110H399.404Z" fill="#1C1B20"/>
<path d="M877.07 1001.44L1309 747.596L1260.38 663.336L685.08 1001.44H877.07Z" fill="#1C1B20"/>
<path d="M1005.68 1110L1211.23 989.187L1162.61 904.927L813.689 1110H1005.68Z" fill="#1C1B20"/>
<path d="M1322 1084.45L1280.44 1012.43L1157.9 1084.45H1322Z" fill="#1C1B20"/>
</g>
<defs>
<clipPath id="clip0_192_2468">
<rect width="1322" height="1110" fill="white"/>
</clipPath>
</defs>
</svg>
